<?xml version="1.0" encoding="UTF-8" standalone="no"?>
<svg
   version="1.1"
   width="156.73326"
   height="95.068001"
   viewBox="0 0 795.60031 482.57868"
   id="svg50"
   sodipodi:docname="cropped-to-150w.svg"
   inkscape:version="1.2.2 (732a01da63, 2022-12-09)"
   xmlns:inkscape="http://www.inkscape.org/namespaces/inkscape"
   xmlns:sodipodi="http://sodipodi.sourceforge.net/DTD/sodipodi-0.dtd"
   xmlns="http://www.w3.org/2000/svg"
   xmlns:svg="http://www.w3.org/2000/svg">
  <defs
     id="defs54" />
  <sodipodi:namedview
     id="namedview52"
     pagecolor="#ffffff"
     bordercolor="#000000"
     borderopacity="0.25"
     inkscape:showpageshadow="2"
     inkscape:pageopacity="0.0"
     inkscape:pagecheckerboard="0"
     inkscape:deskcolor="#d1d1d1"
     showgrid="false"
     inkscape:zoom="3.1506093"
     inkscape:cx="186.31317"
     inkscape:cy="72.525654"
     inkscape:window-width="1920"
     inkscape:window-height="991"
     inkscape:window-x="-9"
     inkscape:window-y="-9"
     inkscape:window-maximized="1"
     inkscape:current-layer="svg50" />
  <g
     transform="translate(-188.44621,-72.350127)"
     id="g48">
    <svg
       viewBox="0 0 396 247"
       data-background-color="#ffffff"
       preserveAspectRatio="xMidYMid"
       height="623"
       width="1000"
       version="1.1"
       id="svg46">
      <g
         id="tight-bounds"
         transform="translate(0.24,-0.1)">
        <svg
           viewBox="0 0 395.52 247.2"
           height="247.2"
           width="395.51999"
           version="1.1"
           id="svg41">
          <g
             id="g4">
            <svg
               version="1.1"
               id="svg2"
               width="100%"
               height="100%" />
          </g>
          <g
             id="g37">
            <svg
               viewBox="0 0 395.52 247.2"
               height="247.2"
               width="395.51999"
               version="1.1"
               id="svg35">
              <g
                 transform="translate(75.54432,97.500115)"
                 id="g31">
                <svg
                   viewBox="0 0 244.43136 52.19977"
                   height="52.199768"
                   width="244.43137"
                   version="1.1"
                   id="svg29">
                  <g
                     id="g27">
                    <svg
                       viewBox="0 0 244.43136 52.19977"
                       height="52.199768"
                       width="244.43137"
                       version="1.1"
                       id="svg25">
                      <g
                         id="g23">
                        <svg
                           viewBox="0 0 244.43136 52.19977"
                           height="52.199768"
                           width="244.43137"
                           version="1.1"
                           id="svg21">
                          <g
                             id="g19">
                            <svg
                               viewBox="0 0 244.43136 52.19977"
                               height="52.199768"
                               width="244.43137"
                               version="1.1"
                               id="svg17">
                              <g
                                 id="textblocktransform">
                                <svg
                                   viewBox="0 0 244.43136 52.19977"
                                   height="52.199768"
                                   width="244.43137"
                                   id="textblock"
                                   version="1.1">
                                <g
                                   id="g13">
                                <svg
                                   viewBox="0 0 244.43136 52.19977"
                                   height="52.199768"
                                   width="244.43137"
                                   version="1.1"
                                   id="svg11">
                                <g
                                   id="g9">
                                <svg
                                   width="244.43137"
                                   viewBox="3.9100001 -32.639999 195.92999 41.84"
                                   height="52.199768"
                                   data-palette-color="#4d331f"
                                   version="1.1"
                                   id="svg7">
                                <path
                                   d="M 5.66,0.07 Q 4.74,0.07 4.32,-0.16 3.91,-0.39 3.91,-0.88 v 0 -28.64 q 0,-0.97 1.75,-0.97 v 0 H 7.2 q 1.44,0 1.83,0.8 v 0 l 8.21,14.24 1.12,2.73 1.12,-2.49 8.23,-14.48 q 0.42,-0.8 1.81,-0.8 v 0 h 1.44 q 1.73,0 1.73,0.97 v 0 28.64 q 0,0.95 -1.73,0.95 v 0 h -0.3 q -0.92,0 -1.34,-0.23 -0.41,-0.23 -0.41,-0.72 v 0 -23.36 l -0.08,0.19 -8.64,15.02 q -0.17,0.29 -0.39,0.42 -0.22,0.14 -0.56,0.14 v 0 H 17.5 q -0.65,0 -0.97,-0.56 v 0 L 7.69,-24.49 v 23.61 q 0,0.95 -1.73,0.95 v 0 z m 43.95,0.17 q -5.4,0 -8.02,-2.82 -2.63,-2.82 -2.63,-8.63 v 0 q 0,-5.76 2.57,-8.75 2.56,-2.99 7.54,-2.99 v 0 q 4.44,0 6.7,2.88 2.26,2.88 2.26,8.45 v 0 q 0,0.24 -0.26,0.67 -0.25,0.43 -0.61,0.76 -0.35,0.33 -0.6,0.33 v 0 H 42.87 q 0.27,3.63 1.87,5.31 1.6,1.67 4.82,1.67 v 0 q 1.8,0 3.11,-0.44 1.31,-0.44 2.53,-1.07 v 0 q 0.12,-0.05 0.36,-0.18 0.25,-0.12 0.35,-0.12 v 0 q 0.26,0 0.62,0.43 0.35,0.43 0.61,0.95 0.25,0.53 0.25,0.77 v 0 q 0,0.54 -1.07,1.2 -1.07,0.66 -2.87,1.12 -1.79,0.46 -3.84,0.46 z m -6.74,-13.23 h 11.28 q 0,-6.83 -5.2,-6.83 v 0 q -5.59,0 -6.08,6.83 z M 70.97,9.2 Q 66.82,9.2 64.4,7.91 61.98,6.62 61.98,3.83 v 0 q 0,-1.9 1.1,-3.32 1.1,-1.41 2.86,-2.12 v 0 l 0.05,-0.1 q -0.86,-0.66 -1.31,-1.51 -0.45,-0.86 -0.45,-2.03 v 0 q 0,-2.83 2.44,-4.54 v 0 q -1.83,-0.88 -2.78,-2.48 -0.96,-1.6 -0.96,-3.6 v 0 q 0,-2 0.99,-3.61 0.99,-1.61 2.92,-2.54 1.93,-0.93 4.64,-0.93 v 0 q 1.44,0 2.56,0.24 v 0 h 7.89 q 0.46,0 0.67,0.31 0.21,0.31 0.21,0.99 v 0 0.54 q 0,0.68 -0.21,0.98 -0.21,0.31 -0.67,0.31 v 0 q -1.64,0 -3.03,-0.12 v 0 l -0.05,0.07 q 0.56,0.78 0.84,1.75 0.29,0.96 0.29,2.01 v 0 q 0,2 -0.99,3.61 -0.99,1.62 -2.91,2.54 -1.92,0.93 -4.65,0.93 v 0 q -2.05,0.07 -3.09,0.76 -1.04,0.68 -1.04,2.24 v 0 q 0,1.15 0.75,1.76 0.74,0.61 1.87,0.86 1.12,0.24 3.12,0.46 v 0 l 1.27,0.15 q 2.03,0.27 3.39,0.73 1.37,0.46 2.26,1.54 0.89,1.07 0.89,2.95 v 0 q 0,3.15 -2.51,4.85 -2.51,1.69 -7.37,1.69 z m 0.46,-20.87 q 2.39,0 3.81,-0.98 1.42,-0.97 1.42,-3.19 v 0 q 0,-4.2 -5.23,-4.2 v 0 q -5.15,0 -5.15,4.2 v 0 q 0,2.22 1.4,3.19 1.41,0.98 3.75,0.98 z m 0,17.92 q 3.03,0 4.49,-0.79 1.47,-0.8 1.47,-2.41 v 0 Q 77.39,2 76.61,1.43 75.83,0.85 74.69,0.62 73.55,0.39 71.7,0.2 v 0 Q 70.43,0.05 69.61,-0.07 68.79,-0.2 68.11,-0.42 v 0 q -2.88,1.23 -2.88,3.55 v 0 q 0,3.12 6.2,3.12 z m 21.8,-6.01 q -3.32,0 -5.37,-1.63 -2.05,-1.64 -2.05,-4.86 v 0 q 0,-3.39 2.07,-5.11 2.08,-1.73 5.07,-2.23 2.99,-0.5 7.26,-0.57 v 0 -2.05 q 0,-1.64 -1.11,-2.63 -1.11,-0.98 -3.65,-0.98 v 0 q -1.93,0 -3.38,0.45 -1.45,0.45 -2.72,1.08 v 0 q -0.54,0.27 -0.66,0.27 v 0 q -0.29,0 -0.65,-0.42 -0.35,-0.43 -0.61,-0.97 -0.25,-0.54 -0.25,-0.78 v 0 q 0,-0.56 1.15,-1.22 1.16,-0.66 3.04,-1.1 1.88,-0.44 3.94,-0.44 v 0 q 4.07,0 6.32,1.78 2.24,1.79 2.24,5.01 v 0 9.74 q 0,2.83 0.26,4.09 0.26,1.26 0.26,1.38 v 0 q 0,0.53 -0.82,0.77 -0.82,0.23 -1.53,0.23 v 0 q -0.58,0 -0.86,-0.66 -0.28,-0.66 -0.55,-1.9 v 0 L 100.53,-3 q -1.34,1.49 -3.16,2.37 -1.82,0.87 -4.14,0.87 z m 0.2,-3.15 q 2.14,0 3.66,-0.78 1.51,-0.78 3.12,-2.22 v 0 -5.13 q -3.22,0.03 -5.3,0.27 -2.07,0.25 -3.63,1.24 -1.57,0.99 -1.57,3.06 v 0 q 0,1.73 0.94,2.65 0.94,0.91 2.78,0.91 z M 112.86,0 q -0.69,0 -1,-0.32 -0.32,-0.31 -0.32,-0.97 v 0 -27.79 q 0,-0.68 0.32,-0.99 0.31,-0.3 1,-0.3 v 0 h 8.76 q 6.1,0 9.77,3.61 3.66,3.62 3.66,11.55 v 0 q 0,7.98 -3.66,11.6 Q 127.72,0 121.62,0 v 0 z m 2.51,-3.3 h 5.96 q 4.39,0 7.08,-2.86 2.68,-2.87 2.68,-9.05 v 0 q 0,-4.15 -1.27,-6.8 -1.27,-2.65 -3.46,-3.86 -2.2,-1.21 -5.03,-1.21 v 0 h -5.96 z m 35.18,3.54 q -5.4,0 -8.02,-2.82 -2.63,-2.82 -2.63,-8.63 v 0 q 0,-5.76 2.57,-8.75 2.56,-2.99 7.54,-2.99 v 0 q 4.45,0 6.7,2.88 2.26,2.88 2.26,8.45 v 0 q 0,0.24 -0.25,0.67 -0.26,0.43 -0.61,0.76 -0.36,0.33 -0.6,0.33 v 0 h -13.7 q 0.27,3.63 1.87,5.31 1.6,1.67 4.82,1.67 v 0 q 1.81,0 3.11,-0.44 1.31,-0.44 2.53,-1.07 v 0 q 0.12,-0.05 0.37,-0.18 0.24,-0.12 0.34,-0.12 v 0 q 0.27,0 0.62,0.43 0.35,0.43 0.61,0.95 0.26,0.53 0.26,0.77 v 0 q 0,0.54 -1.08,1.2 -1.07,0.66 -2.87,1.12 -1.79,0.46 -3.84,0.46 z m -6.74,-13.23 h 11.28 q 0,-6.83 -5.2,-6.83 v 0 q -5.59,0 -6.08,6.83 z m 25.54,13.41 q -1.84,0 -3.42,-0.47 -1.59,-0.46 -2.53,-1.13 -0.94,-0.68 -0.94,-1.19 v 0 q 0,-0.24 0.26,-0.78 0.25,-0.54 0.61,-0.96 0.35,-0.43 0.64,-0.43 v 0 q 0.08,0 0.44,0.24 v 0 q 0.98,0.64 2.07,1.08 1.08,0.44 2.6,0.44 v 0 q 4.24,0 4.24,-3.52 v 0 q 0,-1 -0.4,-1.68 -0.4,-0.69 -1.34,-1.21 -0.94,-0.53 -2.58,-1.02 v 0 q -2.34,-0.68 -3.65,-1.56 -1.3,-0.88 -1.84,-2.06 -0.54,-1.18 -0.54,-2.87 v 0 q 0,-1.81 0.92,-3.25 0.91,-1.44 2.56,-2.24 1.65,-0.81 3.73,-0.81 v 0 q 1.44,0 2.77,0.27 1.33,0.27 2.14,0.7 0.82,0.42 0.82,0.89 v 0 q 0,0.34 -0.23,0.91 -0.23,0.58 -0.57,1 -0.34,0.43 -0.61,0.43 v 0 q -0.05,0 -0.61,-0.3 -0.57,-0.31 -1.43,-0.57 -0.87,-0.25 -1.92,-0.25 v 0 q -1.66,0 -2.74,0.74 -1.09,0.75 -1.09,1.99 v 0 q 0,1.47 0.78,2.35 0.78,0.88 2.59,1.44 v 0 q 2.78,0.85 4.25,1.71 1.46,0.85 2.08,2.08 0.63,1.24 0.63,3.24 v 0 q 0,1.9 -1.03,3.45 -1.02,1.55 -2.78,2.44 -1.76,0.9 -3.88,0.9 z m 15.32,-0.35 q -1.75,0 -1.75,-0.95 v 0 -30.81 q 0,-0.95 1.75,-0.95 v 0 h 0.18 q 1.73,0 1.73,0.95 v 0 19.41 h 0.17 l 8.3,-9.91 q 0.46,-0.59 2.3,-0.59 v 0 h 0.14 q 0.76,0 1.15,0.15 0.39,0.14 0.39,0.39 v 0 q 0,0.36 -0.44,0.88 v 0 l -8.08,9.54 8.96,10.6 q 0.37,0.41 0.37,0.68 v 0 q 0,0.37 -0.42,0.49 -0.41,0.12 -1.46,0.12 v 0 h -0.2 q -0.9,0 -1.46,-0.09 -0.57,-0.1 -0.88,-0.47 v 0 l -8.67,-10.3 h -0.17 v 9.91 q 0,0.95 -1.73,0.95 v 0 z"
                                   opacity="1"
                                   fill="#4d331f"
                                   class="wordmark-text-0"
                                   data-fill-palette-color="primary"
                                   id="text-0" />
                                </svg>
                                </g>
                                </svg>
                                </g>
                                </svg>
                              </g>
                            </svg>
                          </g>
                        </svg>
                      </g>
                    </svg>
                  </g>
                </svg>
              </g>
              <path
                 d="M 202.705,91.5 V 31.371 H 387.164 V 215.829 H 202.705 V 155.7 h 4.708 v 55.422 H 382.457 V 36.078 H 207.413 V 91.5 Z"
                 fill="#4d331f"
                 stroke="transparent"
                 data-fill-palette-color="primary"
                 id="path33" />
            </svg>
          </g>
          <defs
             id="defs39" />
        </svg>
        <rect
           width="395.51999"
           height="247.2"
           fill="none"
           stroke="none"
           visibility="hidden"
           id="rect43"
           x="0"
           y="0" />
      </g>
    </svg>
  </g>
</svg>
